<svg width="690" height="518" viewBox="0 0 690 518" fill="none" xmlns="http://www.w3.org/2000/svg">
<path d="M61.231 516.748C18.265 498.203 -42.089 393.634 43.698 295.508C97.325 234.168 13.06 104.313 171.358 23.384C274.754 -29.477 501.299 8.70398 623.784 155.905C707.037 255.958 708.965 403.164 643.425 515.397L61.231 516.748Z" fill="#FFE0B3"/>
<path d="M130.278 396.623C129.317 395.537 106.803 369.849 112.667 354.414C114.832 348.716 120.621 345.187 129.878 343.922C126.417 338.403 104.717 302.47 112.121 280.383C114.399 273.587 119.272 268.781 126.606 266.1C134.796 263.108 141.875 265.485 147.648 273.173L146.848 273.773C141.371 266.48 134.675 264.215 126.949 267.04C119.915 269.611 115.245 274.208 113.069 280.701C105.356 303.707 130.882 343.646 131.141 344.047L131.575 344.719L130.781 344.815C121.465 345.939 115.685 349.288 113.602 354.77C107.951 369.641 130.795 395.701 131.027 395.962L130.278 396.623Z" fill="#788918"/>
<path d="M136.653 398.292C136.653 398.292 95.0921 351.338 136.722 346.318C136.722 346.318 95.3521 282.254 132.779 268.57C150.473 262.101 159.853 282.324 164.826 305.447C164.826 305.447 188.482 289.018 191.513 325.863C191.513 325.863 216.53 313.601 221.59 342.298C226.65 370.995 225.561 395.573 225.561 395.573L190.52 409.777L136.653 398.292Z" fill="#788918"/>
<path d="M188.849 393.001C151.123 355.528 142.576 296.794 142.494 296.205L143.484 296.066C143.565 296.652 152.072 355.061 189.554 392.292L188.849 393.001Z" fill="#47393D"/>
<path d="M164.45 359.494C164.417 359.219 161.26 331.797 174.787 316.737L175.531 317.405C162.309 332.124 165.409 359.102 165.443 359.373L164.45 359.494Z" fill="#47393D"/>
<path d="M199.553 515.71L133.453 515.199C101.475 499.539 114.952 477.836 130.16 478.353C130.16 478.353 93.497 470.59 88.608 444.197C87.224 436.725 93.763 432.758 103.85 430.91C103.85 430.91 58.093 391.594 80.46 374.85C99.471 360.618 120.382 395.292 120.382 395.292C120.382 395.292 134.233 373.815 150.799 401.243C150.799 401.243 162.164 371.964 184.475 393.221C189.907 398.396 191.277 404.626 193.98 409.005L199.553 515.71Z" fill="#98A51C"/>
<path d="M205.487 490.227C142.946 458.706 109.613 406.509 109.283 405.986L110.13 405.453C110.458 405.975 143.654 457.942 205.938 489.335L205.487 490.227Z" fill="#47393D"/>
<path d="M135.366 437.95C135.299 437.771 128.683 419.845 135.695 400.844L136.634 401.19C129.755 419.831 136.236 437.421 136.302 437.597L135.366 437.95Z" fill="#47393D"/>
<path d="M157.932 466.035C130.683 466.035 113.001 452.882 112.808 452.735L113.413 451.938C113.623 452.097 134.816 467.842 166.538 464.593L166.64 465.587C163.644 465.896 160.735 466.035 157.932 466.035Z" fill="#47393D"/>
<path d="M125.886 515.648C105.056 505.448 105.377 494.058 106.481 489.635C107.96 483.71 113.255 479.163 119.461 478.087C110.406 475.716 85.392 467.27 81.377 445.587C80.516 440.937 81.6211 436.274 84.3351 433.113C86.6431 430.425 89.988 428.944 94.064 428.787C88.826 424.181 65.867 403.017 66.351 386.445C66.493 381.59 68.6681 377.553 72.8151 374.449C78.8171 369.957 85.596 369.744 92.967 373.819L92.483 374.694C85.488 370.827 79.072 371.013 73.415 375.25C69.524 378.163 67.484 381.939 67.351 386.475C66.83 404.302 95.436 428.658 95.724 428.902L96.8221 429.829L95.386 429.784C91.017 429.636 87.449 431.023 85.094 433.765C82.576 436.699 81.554 441.05 82.361 445.406C87.129 471.151 122.545 477.797 122.903 477.861L122.798 478.853C115.681 478.63 109.083 483.349 107.453 489.877C106.408 494.065 106.153 504.87 126.327 514.749L125.886 515.648Z" fill="#98A51C"/>
<path d="M171.615 400.477C171.045 399.664 170.462 398.864 169.864 398.076L171.059 397.17C171.667 397.972 172.263 398.788 172.843 399.616L171.615 400.477Z" fill="white"/>
<path d="M166.158 393.517C164.913 392.085 163.572 390.631 162.17 389.198L163.243 388.149C164.665 389.604 166.026 391.08 167.289 392.533L166.158 393.517ZM157.951 385.091C156.581 383.819 155.1 382.499 153.55 381.169L154.528 380.03C156.092 381.374 157.588 382.706 158.972 383.991L157.951 385.091ZM149.011 377.398C147.481 376.163 145.933 374.944 144.372 373.736L145.29 372.551C146.859 373.765 148.416 374.989 149.953 376.231L149.011 377.398ZM139.67 370.143C138.42 369.199 137.167 368.257 135.915 367.316L134.936 366.581L135.837 365.382L136.816 366.117C138.07 367.059 139.324 368.002 140.575 368.946L139.67 370.143ZM130.201 363.008C128.624 361.809 127.055 360.603 125.499 359.384L126.424 358.202C127.975 359.417 129.539 360.619 131.11 361.814L130.201 363.008ZM120.86 355.664C119.24 354.332 117.757 353.072 116.324 351.812L117.314 350.685C118.734 351.934 120.206 353.184 121.813 354.505L120.86 355.664ZM111.93 347.791C110.462 346.387 109.048 344.964 107.726 343.564L108.817 342.535C110.121 343.917 111.518 345.321 112.967 346.708L111.93 347.791ZM103.761 339.102C103.178 338.403 102.604 337.695 102.041 336.977C101.382 336.137 100.726 335.264 100.092 334.382L101.31 333.507C101.932 334.371 102.575 335.228 103.221 336.051C103.775 336.757 104.339 337.453 104.913 338.141L103.761 339.102ZM96.788 329.396C95.76 327.71 94.777 325.956 93.866 324.178L95.201 323.494C96.095 325.238 97.06 326.961 98.069 328.614L96.788 329.396ZM91.331 318.764C90.559 316.947 89.837 315.07 89.187 313.187L90.605 312.697C91.244 314.549 91.953 316.392 92.712 318.179L91.331 318.764ZM87.432 307.474C86.915 305.565 86.456 303.608 86.066 301.658L87.537 301.363C87.921 303.281 88.373 305.206 88.881 307.082L87.432 307.474ZM85.087 295.764C84.827 293.804 84.627 291.805 84.493 289.821L85.989 289.719C86.121 291.671 86.318 293.639 86.574 295.567L85.087 295.764ZM84.283 283.854L84.282 283.571C84.282 281.68 84.341 279.766 84.456 277.882L85.953 277.974C85.839 279.827 85.782 281.711 85.782 283.572L85.783 283.847L84.283 283.854ZM86.502 272.123L85.014 271.935C85.263 269.963 85.58 267.979 85.956 266.036L87.429 266.321C87.059 268.232 86.747 270.184 86.502 272.123ZM88.734 260.59L87.284 260.209C87.791 258.282 88.367 256.356 88.999 254.484L90.42 254.963C89.8 256.804 89.233 258.698 88.734 260.59ZM92.486 249.467L91.101 248.891C91.868 247.05 92.706 245.222 93.592 243.457L94.933 244.13C94.062 245.864 93.239 247.659 92.486 249.467ZM97.757 238.986L96.47 238.216C97.495 236.501 98.591 234.814 99.728 233.202L100.953 234.066C99.839 235.648 98.763 237.303 97.757 238.986ZM104.515 229.403L103.357 228.45C104.449 227.123 105.649 225.733 107.249 223.942L108.368 224.941C106.782 226.717 105.593 228.093 104.515 229.403ZM112.329 220.533L111.21 219.534C112.792 217.761 113.979 216.384 115.057 215.069L116.217 216.02C115.124 217.351 113.925 218.743 112.329 220.533ZM129.071 216.642L128.671 216.64L128.688 215.14L129.071 215.142C130.876 215.142 132.698 215.019 134.488 214.777L134.689 216.263C132.833 216.515 130.943 216.642 129.071 216.642ZM122.662 216.142C120.658 215.825 118.683 215.356 116.79 214.748L117.249 213.32C119.068 213.904 120.968 214.355 122.896 214.66L122.662 216.142ZM140.59 215.025L140.175 213.584C142.049 213.045 143.881 212.366 145.62 211.566L146.247 212.928C144.44 213.759 142.536 214.465 140.59 215.025ZM111.206 212.441C109.507 211.567 107.882 210.556 106.375 209.437L106.086 209.22L106.994 208.026L107.267 208.232C108.71 209.304 110.266 210.271 111.892 211.108L111.206 212.441ZM119.834 211.251L118.6 210.398L118.734 210.203C119.812 208.628 120.776 207.015 121.604 205.407L122.938 206.093C122.082 207.757 121.085 209.424 119.974 211.048L119.834 211.251ZM151.518 209.977L150.681 208.732C152.299 207.645 153.818 206.426 155.197 205.109L156.233 206.193C154.793 207.569 153.206 208.842 151.518 209.977ZM101.613 205.139C100.21 203.597 98.995 201.955 98.001 200.258L99.296 199.5C100.237 201.107 101.389 202.664 102.722 204.129L101.613 205.139ZM160.22 201.642L159.01 200.756C160.136 199.217 161.152 197.552 162.027 195.809L163.368 196.482C162.455 198.3 161.396 200.036 160.22 201.642ZM125.282 200.528L123.856 200.06C124.48 198.157 124.904 196.264 125.116 194.434L126.606 194.607C126.383 196.537 125.938 198.528 125.282 200.528ZM95.59 194.654C95.175 193.18 94.922 191.681 94.839 190.199C94.821 189.886 94.813 189.572 94.813 189.258C94.814 189.026 94.818 188.796 94.827 188.567L96.326 188.626C96.318 188.838 96.313 189.049 96.313 189.259C96.313 189.544 96.321 189.829 96.337 190.114C96.415 191.487 96.65 192.878 97.035 194.247L95.59 194.654ZM165.642 190.892L164.213 190.436C164.796 188.607 165.25 186.706 165.562 184.786L167.042 185.026C166.719 187.019 166.248 188.992 165.642 190.892ZM125.081 188.713C125.01 188.191 124.919 187.671 124.807 187.151C124.525 185.843 124.07 184.545 123.455 183.293L124.802 182.632C125.471 183.994 125.966 185.408 126.274 186.836C126.394 187.393 126.492 187.952 126.568 188.511L125.081 188.713ZM97.515 183.107L96.121 182.552C96.901 180.591 97.978 178.823 99.322 177.297L100.448 178.288C99.218 179.685 98.232 181.306 97.515 183.107ZM167.573 179.019L166.073 178.996C166.076 178.777 166.078 178.558 166.078 178.34C166.078 176.617 165.967 174.886 165.748 173.193L167.235 173.001C167.463 174.758 167.578 176.554 167.578 178.339C167.579 178.564 167.577 178.792 167.573 179.019ZM120.195 178.651C118.835 177.24 117.311 176.105 115.666 175.28L116.339 173.939C118.136 174.841 119.796 176.077 121.275 177.61L120.195 178.651ZM104.885 174.917L104.253 173.557C105.237 173.1 106.269 172.765 107.321 172.563C108.318 172.372 109.346 172.295 110.355 172.338L110.292 173.837C109.399 173.798 108.487 173.866 107.604 174.036C106.673 174.215 105.758 174.512 104.885 174.917ZM164.579 167.503C164.044 165.628 163.363 163.799 162.557 162.065L163.916 161.432C164.756 163.236 165.465 165.14 166.021 167.09L164.579 167.503Z" fill="white"/>
<path d="M159.61 156.935C159.05 156.13 158.45 155.347 157.828 154.605L158.977 153.641C159.627 154.416 160.255 155.236 160.84 156.077L159.61 156.935Z" fill="white"/>
<path d="M478.512 179.628L486.825 176.686C487.784 176.347 488.286 175.295 487.947 174.336L478.07 146.428C477.731 145.469 476.679 144.967 475.72 145.307L467.407 148.249C466.448 148.588 465.946 149.64 466.285 150.599L476.162 178.507C476.501 179.466 477.553 179.968 478.512 179.628Z" fill="#47393D"/>
<path d="M475.885 189.377C476.301 187.301 476.016 185.149 475.071 183.255C473.275 179.655 470.453 173.743 470.108 171.49C469.866 169.91 474.228 160.331 475.608 160.891C477.051 161.477 472.6 168.75 473.249 169.263C473.619 169.556 477.862 162.134 479.134 163.186C480.259 164.116 474.819 170.286 475.433 170.689C475.801 170.931 476.853 169.092 478.135 168.378C478.897 167.954 482.365 166.855 482.469 167.796C482.591 168.898 479.899 169.166 479.003 169.817C477.805 170.687 477.148 172.079 477.34 172.228C477.704 172.512 479.257 170.985 480.658 170.584C481.545 170.33 484.475 170.535 484.575 171.121C484.742 172.099 481.993 171.737 481.133 172.232C480.081 172.838 478.7 173.667 479.283 174.048C486.309 178.639 484.205 185.694 484.205 185.694L484.178 185.879L493.706 222.076L499.418 206.899L515.167 245.903C515.167 245.903 496 260.365 481.14 249.085C468.509 239.498 473.584 200.859 475.885 189.377Z" fill="#FFBB8D"/>
<path d="M594.034 200.393L593.305 200.218C599.934 172.616 584.368 163.696 574.5 160.836C562.753 157.431 557.992 149.855 557.945 149.778L558.584 149.385C558.63 149.459 563.256 156.795 574.709 160.115C591.94 165.11 598.983 179.79 594.034 200.393Z" fill="#47393D"/>
<path d="M518.403 146.535C518.222 146.176 514.018 137.666 517.537 131.302C519.564 127.636 523.742 125.478 529.953 124.889L530.023 125.636C524.074 126.2 520.093 128.228 518.194 131.664C514.864 137.685 519.031 146.113 519.073 146.197L518.403 146.535Z" fill="#47393D"/>
<path d="M518.738 146.367C518.738 146.367 514.52 139.03 520.648 129.838C524.51 124.044 538.733 122.008 546.137 126.859C551.314 130.251 554.358 136.159 557.541 146.093C564.475 167.734 592.264 160.731 592.945 196.816L539.158 188.986L518.738 146.367Z" fill="#47393D"/>
<path d="M528.99 500.034L527.222 481.917H508.074L512.233 499.508C512.233 499.508 514.451 505.406 520.888 505.189C527.079 504.98 528.99 500.034 528.99 500.034Z" fill="#FFBB8D"/>
<path d="M609.818 500.034L608.051 481.917H588.903L593.722 500.168C593.722 500.168 595.505 504.396 601.717 505.189C607.86 505.973 609.818 500.034 609.818 500.034Z" fill="#FFBB8D"/>
<path d="M542.35 489.667C542.35 489.667 518.776 497.156 491.882 487.284C491.882 487.284 473.701 364.35 508.018 270.707L549.055 274.593C549.055 274.593 527.127 388.211 542.35 489.667Z" fill="#788918"/>
<path d="M566.105 489.642C566.105 489.642 526.375 367.414 530.337 274.935L583.797 278.263C577.669 366.433 620.903 490.008 620.903 490.008C620.903 490.008 598.776 495.455 566.105 489.642Z" fill="#788918"/>
<path d="M494.797 216.37C494.797 216.37 504.478 177.157 536.758 176.314C599.068 174.686 608.102 224.465 608.102 224.465C608.102 224.465 596.837 242.694 576.296 248.878L507.161 231.429C498.546 223.919 494.797 216.37 494.797 216.37Z" fill="#F9614A"/>
<path d="M549.278 177.337C546.604 169.984 545.459 161.75 545.786 152.669L530.946 162.391L529.032 180.208C529.032 180.208 532.368 183.659 537.728 183.39C540.944 183.228 544.888 181.727 549.278 177.337Z" fill="#FFBB8D"/>
<path d="M529.688 173.667C539.935 170.308 542.048 162.056 542.048 162.056L530.556 165.588L529.688 173.667Z" fill="#47393D"/>
<path d="M473.18 192.37L488.329 192.54L494.797 216.37C494.797 216.37 500.946 184.115 529.35 177.221L518.967 238.327C518.967 238.327 509.265 257.05 490.031 253.476C470.797 249.901 466.542 221.646 473.18 192.37Z" fill="#F9614A"/>
<path d="M540.123 134.946C533.579 131.32 522.382 130.985 519.798 139.979C517.413 148.279 517.242 171.445 528.002 170.968C550.287 169.98 547.136 138.831 540.123 134.946Z" fill="#FFBB8D"/>
<path d="M449.067 50.395H192.441V485.58H449.067V50.395Z" fill="white"/>
<path d="M449.004 31.33V50.799H192.377V31.33C192.377 24.718 197.739 19.359 204.351 19.359H437.034C443.645 19.36 449.004 24.718 449.004 31.33Z" fill="#47393D"/>
<path d="M192.377 485.985H449.004V505.115C449.004 511.727 443.645 517.089 437.033 517.089H204.35C197.738 517.089 192.376 511.727 192.376 505.115V485.985H192.377Z" fill="#47393D"/>
<path d="M449.004 50.799H447.685V486.139H449.004V50.799Z" fill="#47393D"/>
<path d="M354.022 35.254H289.36C288.723 35.254 288.206 34.737 288.206 34.1C288.206 33.463 288.723 32.946 289.36 32.946H354.022C354.659 32.946 355.176 33.463 355.176 34.1C355.176 34.738 354.659 35.254 354.022 35.254Z" fill="#F2E9E8"/>
<path d="M418.746 311.711H222.337C218.513 311.711 215.413 308.611 215.413 304.787V133.731C215.413 129.907 218.513 126.807 222.337 126.807H418.746C422.57 126.807 425.67 129.907 425.67 133.731V304.788C425.67 308.612 422.57 311.711 418.746 311.711Z" fill="#FFCE76"/>
<path d="M380.355 278.788L379.433 278.401C391.884 248.724 376.1 235.908 365.582 230.91C353.007 224.934 349.162 215.835 349.004 215.45L349.929 215.071C349.967 215.162 353.806 224.207 366.011 230.007C384.456 238.772 389.685 256.553 380.355 278.788Z" fill="#47393D"/>
<path d="M227.594 131.394C231.651 106.993 215.158 83.9236 190.757 79.867C166.356 75.8104 143.286 92.3031 139.229 116.704C135.173 141.106 151.665 164.175 176.067 168.232C200.468 172.288 223.538 155.796 227.594 131.394Z" fill="#788918"/>
<path d="M378.373 271.727L325.463 254.047L279.053 278.437C270.033 243.197 294.027 241.601 295.053 215.967C295.585 202.689 298.585 188.646 306.627 183.795C311.21 181.031 317.031 182.263 317.031 182.263C323.669 176.391 334.629 179.641 338.989 183.795C344.044 188.611 347.623 196.617 349.173 208.297C352.553 233.727 384.833 231.497 378.373 271.727Z" fill="#47393D"/>
<path d="M330.876 227.359H311.408L308.499 251.193C310.674 253.977 315.842 259.305 323.119 258.574C328.059 258.074 331.543 254.609 333.781 251.297C334.059 251.296 330.876 227.359 330.876 227.359Z" fill="#FFBB8D"/>
<path d="M332.668 241.182C318.309 247.134 312.027 238.476 312.027 238.476L331.522 232.267C331.858 234.843 332.281 238.095 332.668 241.182Z" fill="#47393D"/>
<path d="M339.8 199.263C343.33 211.159 340.107 242.014 321.447 242.068C301.438 242.126 300.482 208.592 303.814 197.819C308.104 183.947 335.975 186.372 339.8 199.263Z" fill="#FFBB8D"/>
<path d="M180.701 92.345L180.16 90.956C183.802 89.536 187.613 88.852 191.476 88.928L191.448 90.418C187.82 90.352 184.112 91.015 180.701 92.345Z" fill="white"/>
<path d="M159.405 128.031C157.565 113.893 164.152 99.841 175.795 93.065L176.545 94.354C165.414 100.832 159.119 114.288 160.883 127.838L159.405 128.031Z" fill="white"/>
<path d="M162.979 139.523C161.75 137.149 160.795 134.607 160.143 131.967L161.591 131.61C162.215 134.135 163.127 136.567 164.303 138.837L162.979 139.523Z" fill="white"/>
<path d="M170.49 107.152L169.254 106.318C176.541 95.528 190.49 91.504 201.704 96.96L201.051 98.3C190.504 93.168 177.364 96.973 170.49 107.152Z" fill="white"/>
<path d="M167.469 136.792C163.143 128.448 163.054 118.366 167.23 109.823L168.57 110.477C164.601 118.598 164.684 128.179 168.793 136.106L167.469 136.792Z" fill="white"/>
<path d="M205.365 108.469C201.177 103.392 194.658 100.765 188.338 101.61L188.14 100.132C194.958 99.214 202.002 102.048 206.515 107.519L205.365 108.469Z" fill="white"/>
<path d="M171.95 134.059C168.82 127.999 168.487 120.749 171.036 114.167C173.429 107.988 177.991 103.382 183.881 101.197L184.399 102.595C178.915 104.629 174.663 108.929 172.426 114.705C170.067 120.798 170.384 127.778 173.275 133.375L171.95 134.059Z" fill="white"/>
<path d="M176.432 131.326C173.746 126.135 173.781 119.655 176.523 114.413L177.844 115.104C175.324 119.921 175.29 125.874 177.756 130.64L176.432 131.326Z" fill="white"/>
<path d="M203.332 114.933C201.191 110.802 197.37 108.013 192.848 107.279C188.439 106.565 184.053 107.96 180.815 111.108L179.776 110.039C183.356 106.559 188.209 105.017 193.087 105.807C198.08 106.616 202.296 109.693 204.656 114.246L203.332 114.933Z" fill="white"/>
<path d="M198.849 117.665C198.392 116.782 197.814 115.976 197.133 115.272L198.205 114.236C198.987 115.045 199.649 115.968 200.173 116.98L198.849 117.665Z" fill="white"/>
<path d="M180.915 128.593C178.625 124.167 179.472 118.363 182.974 114.478C186.001 111.121 190.284 110.088 194.433 111.714L193.888 113.102C190.29 111.69 186.715 112.555 184.082 115.475C180.987 118.909 180.23 124.021 182.24 127.907L180.915 128.593Z" fill="white"/>
<path d="M185.399 125.861C183.853 122.877 184.874 119.061 187.674 117.354C189.028 116.529 190.598 116.306 192.092 116.724C193.64 117.157 194.918 118.218 195.691 119.711L194.367 120.396C193.786 119.274 192.836 118.48 191.691 118.16C190.599 117.855 189.449 118.02 188.451 118.628C186.306 119.935 185.532 122.873 186.725 125.175L185.399 125.861Z" fill="white"/>
<path d="M206.151 122.819C205.515 120.025 204.529 117.324 203.22 114.793L204.545 114.109C205.911 116.752 206.94 119.571 207.604 122.489L206.151 122.819Z" fill="white"/>
<path d="M196.749 156.951L195.765 155.831C203.806 148.766 208.025 137.527 206.775 126.5L208.257 126.332C209.561 137.836 205.151 149.569 196.749 156.951Z" fill="white"/>
<path d="M176.555 159.176C175.195 159.176 173.83 159.061 172.47 158.825L172.725 157.356C182.485 159.049 192.621 154.096 197.946 145.031L199.232 145.786C194.334 154.126 185.571 159.176 176.555 159.176Z" fill="white"/>
<path d="M201.208 141.748L199.823 141.196C202.865 133.559 202.46 124.71 198.739 117.526L200.063 116.84C203.979 124.404 204.408 133.715 201.208 141.748Z" fill="white"/>
<path d="M176.751 153.673C174.962 153.673 173.166 153.428 171.399 152.934C165.811 151.37 161.19 147.527 158.386 142.112L159.71 141.427C162.322 146.47 166.615 150.047 171.801 151.498C176.775 152.891 182.004 152.139 186.525 149.384C196.086 143.557 199.553 130.49 194.253 120.255L195.577 119.57C201.23 130.486 197.517 144.432 187.301 150.658C184.026 152.652 180.404 153.673 176.751 153.673Z" fill="white"/>
<path d="M191.542 129.378C191.386 127.138 190.773 124.927 189.769 122.986L191.093 122.301C192.19 124.422 192.86 126.833 193.03 129.274L191.542 129.378Z" fill="white"/>
<path d="M184.818 145.862L184.04 144.589C187.943 142.205 190.694 137.91 191.401 133.1L192.876 133.317C192.106 138.559 189.094 143.249 184.818 145.862Z" fill="white"/>
<path d="M176.949 148.125C171.234 148.125 165.672 144.803 162.869 139.379L164.193 138.695C167.272 144.651 173.999 147.82 180.193 146.226L180.565 147.67C179.369 147.977 178.155 148.125 176.949 148.125Z" fill="white"/>
<path d="M169.654 139.721C168.726 138.84 167.951 137.806 167.352 136.647L168.677 135.963C169.199 136.974 169.873 137.874 170.681 138.64L169.654 139.721Z" fill="white"/>
<path d="M176.97 142.658C175.832 142.658 174.669 142.464 173.513 142.066L173.997 140.656C177.579 141.886 181.083 140.912 183.612 137.982C186.564 134.562 187.252 129.519 185.286 125.719L186.61 125.034C188.849 129.362 188.081 135.087 184.741 138.957C182.651 141.378 179.891 142.658 176.97 142.658Z" fill="white"/>
<path d="M176.925 137.108C176.427 137.108 175.928 137.04 175.435 136.902C173.887 136.469 172.609 135.408 171.835 133.915L173.159 133.229C173.74 134.351 174.691 135.145 175.836 135.466C176.928 135.771 178.078 135.606 179.075 134.998C181.22 133.691 181.994 130.753 180.802 128.45L182.126 127.765C183.671 130.75 182.651 134.566 179.851 136.272C178.944 136.825 177.939 137.108 176.925 137.108Z" fill="white"/>
<path d="M304.944 425.544H182.097C177.395 425.544 173.584 421.733 173.584 417.031V345.324C173.584 340.622 177.395 336.811 182.097 336.811H304.944C309.645 336.811 313.457 340.622 313.457 345.324V417.031C313.457 421.733 309.645 425.544 304.944 425.544Z" fill="#F9614A"/>
<path d="M254.837 358.657H251.814V350.96C251.814 346.688 248.347 343.211 244.065 343.211C239.783 343.211 236.316 346.688 236.316 350.96V358.657H233.293C230.456 358.657 228.165 360.948 228.165 363.785V380.201C228.165 383.028 230.456 385.329 233.293 385.329H254.837C257.674 385.329 259.965 383.028 259.965 380.201V363.785C259.965 360.947 257.675 358.657 254.837 358.657ZM245.603 372.793V378.024H242.528V372.793C241.311 372.215 240.475 370.977 240.475 369.543C240.475 367.562 242.085 365.952 244.066 365.952C246.057 365.952 247.657 367.562 247.657 369.543C247.656 370.977 246.82 372.215 245.603 372.793ZM239.278 358.657V351.269C239.278 348.628 241.424 346.481 244.066 346.481C246.708 346.481 248.854 348.627 248.854 351.269V358.657H239.278Z" fill="white"/>
<path d="M297.36 414.378H190.771C189.047 414.378 187.65 412.981 187.65 411.257V396.644C187.65 394.92 189.047 393.523 190.771 393.523H297.36C299.084 393.523 300.481 394.92 300.481 396.644V411.257C300.481 412.981 299.083 414.378 297.36 414.378Z" fill="white"/>
<path d="M210.979 403.807C210.979 405.746 209.407 407.318 207.469 407.318C205.53 407.318 203.958 405.746 203.958 403.807C203.958 401.868 205.53 400.296 207.469 400.296C209.408 400.296 210.979 401.868 210.979 403.807Z" fill="#47393D"/>
<path d="M224.814 403.807C224.814 405.746 223.242 407.318 221.304 407.318C219.365 407.318 217.793 405.746 217.793 403.807C217.793 401.868 219.365 400.296 221.304 400.296C223.243 400.296 224.814 401.868 224.814 403.807Z" fill="#47393D"/>
<path d="M238.649 403.807C238.649 405.746 237.077 407.318 235.138 407.318C233.199 407.318 231.628 405.746 231.628 403.807C231.628 401.868 233.2 400.296 235.138 400.296C237.077 400.296 238.649 401.868 238.649 403.807Z" fill="#47393D"/>
<path d="M252.484 403.807C252.484 405.746 250.912 407.318 248.973 407.318C247.034 407.318 245.463 405.746 245.463 403.807C245.463 401.868 247.035 400.296 248.973 400.296C250.912 400.296 252.484 401.868 252.484 403.807Z" fill="#47393D"/>
<path d="M262.808 407.318C264.747 407.318 266.319 405.746 266.319 403.807C266.319 401.868 264.747 400.296 262.808 400.296C260.869 400.296 259.297 401.868 259.297 403.807C259.297 405.746 260.869 407.318 262.808 407.318Z" fill="#47393D"/>
<path d="M276.643 407.318C278.582 407.318 280.154 405.746 280.154 403.807C280.154 401.868 278.582 400.296 276.643 400.296C274.704 400.296 273.132 401.868 273.132 403.807C273.132 405.746 274.704 407.318 276.643 407.318Z" fill="#47393D"/>
<path d="M612.69 514.986H566.985C566.93 514.445 566.82 512.775 567.168 511.022C567.186 510.985 612.047 511.279 612.047 511.279L612.69 514.986Z" fill="#47393D"/>
<path d="M612.047 511.279L567.187 510.985C567.618 506.342 573.445 504.158 578.886 502.773C579.253 502.681 579.611 502.599 579.969 502.507C580.749 502.323 581.511 502.158 582.235 501.993C582.611 501.91 582.978 501.828 583.327 501.754C585.208 501.332 586.768 500.974 587.667 500.552C588.474 500.167 589.456 499.607 590.31 499.093C590.604 498.919 590.87 498.744 591.117 498.588C591.924 498.083 592.503 497.698 592.503 497.698C595.439 498.661 599.862 501.423 609.57 497.028L609.864 498.716L610.029 499.67L612.047 511.279Z" fill="#47393D"/>
<path d="M579.969 502.507C579.29 504.076 579.217 505.764 579.217 505.783L578.299 505.746C578.308 505.654 578.363 504.278 578.886 502.773C579.253 502.682 579.611 502.599 579.969 502.507Z" fill="white"/>
<path d="M583.327 501.755C582.575 503.379 582.501 505.178 582.501 505.196L581.583 505.168C581.583 505.067 581.647 503.571 582.234 501.993C582.611 501.911 582.978 501.828 583.327 501.755Z" fill="white"/>
<path d="M610.029 499.672C606.028 501.663 602.606 502.351 599.771 502.351C594.532 502.351 591.329 499.984 590.311 499.094C590.605 498.92 590.871 498.745 591.118 498.589C592.825 500.048 599.073 504.214 609.864 498.717L610.029 499.672Z" fill="white"/>
<path d="M612.046 510.485H567.186V511.485H612.046V510.485Z" fill="white"/>
<path d="M532.009 514.986H486.304C486.249 514.445 486.139 512.775 486.488 511.022C486.506 510.985 531.367 511.279 531.367 511.279L532.009 514.986Z" fill="#47393D"/>
<path d="M531.366 511.279L486.506 510.985C486.937 506.342 492.764 504.158 498.205 502.773C498.572 502.681 498.93 502.599 499.288 502.507C500.068 502.323 500.83 502.158 501.554 501.993C501.93 501.91 502.297 501.828 502.646 501.754C504.527 501.332 506.087 500.974 506.986 500.552C507.793 500.167 508.775 499.607 509.629 499.093C509.923 498.919 510.189 498.744 510.436 498.588C511.243 498.083 511.822 497.698 511.822 497.698C514.758 498.661 519.181 501.423 528.889 497.028L529.183 498.716L529.348 499.67L531.366 511.279Z" fill="#47393D"/>
<path d="M499.288 502.507C498.609 504.076 498.536 505.764 498.536 505.783L497.618 505.746C497.627 505.654 497.682 504.278 498.205 502.773C498.572 502.682 498.93 502.599 499.288 502.507Z" fill="white"/>
<path d="M502.646 501.755C501.894 503.379 501.82 505.178 501.82 505.196L500.902 505.168C500.902 505.067 500.966 503.571 501.553 501.993C501.93 501.911 502.298 501.828 502.646 501.755Z" fill="white"/>
<path d="M529.348 499.672C525.347 501.663 521.925 502.351 519.09 502.351C513.851 502.351 510.648 499.984 509.63 499.094C509.924 498.92 510.19 498.745 510.437 498.589C512.144 500.048 518.392 504.214 529.183 498.717L529.348 499.672Z" fill="white"/>
<path d="M530.988 510.485H486.506V511.485H530.988V510.485Z" fill="white"/>
<path d="M576.188 248.883L577.16 248.697C574.385 234.241 568.619 223.138 568.561 223.027L567.685 223.486C567.742 223.595 573.441 234.577 576.188 248.883Z" fill="#47393D"/>
<path d="M543.376 147.423C528.989 147.199 526.606 137.838 526.606 137.838C520.649 134.774 518.739 146.367 518.739 146.367C518.739 146.367 515.372 138.349 519.907 132.858C521.852 130.503 525.808 128.356 531.72 127.674C540.72 126.636 546.471 128.998 549.457 135.966C554.13 146.87 548.053 152.306 548.053 152.306L543.376 147.423Z" fill="#47393D"/>
<path d="M340.904 210.093C323.05 212.129 316.266 197.965 316.266 197.965C304.266 192.731 301.713 208.816 301.713 208.816C301.713 208.816 299.013 201.127 302.684 193.575C308.99 180.603 335.034 185.031 339.734 192.359C347.089 203.826 343.458 212.135 343.458 212.135L340.904 210.093Z" fill="#47393D"/>
<path d="M540.237 148.071C535.365 148.071 531.645 146.886 529.15 144.534C525.838 141.412 525.968 137.416 525.975 137.247L526.725 137.278C526.723 137.316 526.61 141.117 529.674 143.998C532.581 146.731 537.306 147.786 543.72 147.135L543.796 147.881C542.55 148.008 541.362 148.071 540.237 148.071Z" fill="#47393D"/>
<path d="M541.657 155.794C541.657 155.794 548.163 156.913 548.762 152.001C549.301 147.569 543.987 146.304 541.485 148.435L541.657 155.794Z" fill="#FFBB8D"/>
<path d="M332.469 211.912C328.969 211.912 325.911 211.079 323.327 209.416C316.923 205.294 315.814 197.633 315.769 197.309L316.76 197.174C316.77 197.249 317.86 204.715 323.876 208.581C328.133 211.315 333.813 211.644 340.759 209.558L341.047 210.516C337.949 211.446 335.085 211.912 332.469 211.912Z" fill="#47393D"/>
<path d="M580.492 227.046C584.026 263.572 588.904 285.106 588.904 285.106C558.096 288.51 519.752 285.571 496.308 273.913L510.916 208.89L528.819 179.101C528.819 179.101 537.299 187.734 548.564 176.2L575.968 191.94L580.492 227.046Z" fill="white"/>
<path d="M531.071 174.02C533.664 174.503 539.601 174.795 546.269 169.648C547.027 169.063 548.135 169.444 548.343 170.379L549.966 177.668C549.966 177.668 538.604 189.558 529.03 180.209L529.537 175.166C529.614 174.405 530.32 173.88 531.071 174.02Z" fill="white"/>
<path d="M295.536 210.227C295.433 209.501 293.111 192.359 301.435 184.829C305.156 181.464 310.422 180.587 317.086 182.224L316.848 183.195C310.524 181.642 305.565 182.441 302.106 185.571C294.172 192.749 296.502 209.914 296.526 210.087L295.536 210.227Z" fill="#47393D"/>
<path d="M565.629 489.796C565.346 488.924 537.198 401.606 530.845 319.68L531.841 319.602C538.187 401.412 566.297 488.617 566.58 489.488L565.629 489.796Z" fill="white"/>
<path d="M535.301 490.751C535.301 490.751 535.169 489.703 534.951 487.769L535.945 487.658C536.161 489.58 536.293 490.624 536.293 490.626L535.301 490.751Z" fill="white"/>
<path d="M534.33 481.935C534.154 480.204 533.965 478.246 533.768 476.089L534.764 475.999C534.96 478.151 535.15 480.105 535.324 481.835L534.33 481.935ZM533.262 470.242C533.11 468.387 532.955 466.431 532.805 464.389L533.803 464.315C533.953 466.355 534.106 468.306 534.258 470.16L533.262 470.242ZM532.398 458.532C532.275 456.635 532.156 454.679 532.043 452.673L533.041 452.616C533.154 454.62 533.273 456.572 533.396 458.468L532.398 458.532ZM531.74 446.81C531.648 444.89 531.565 442.933 531.491 440.945L532.491 440.908C532.565 442.892 532.647 444.846 532.738 446.763L531.74 446.81ZM531.299 435.077C531.245 433.142 531.2 431.185 531.166 429.208L532.166 429.19C532.2 431.163 532.245 433.118 532.299 435.049L531.299 435.077ZM531.099 423.341C531.093 422.348 531.09 421.352 531.09 420.352C531.09 419.394 531.093 418.434 531.099 417.471L532.099 417.477C532.093 418.438 532.09 419.396 532.09 420.352C532.09 421.35 532.093 422.344 532.099 423.335L531.099 423.341ZM532.171 411.62L531.171 411.6C531.208 409.646 531.259 407.688 531.323 405.73L532.323 405.763C532.259 407.716 532.208 409.67 532.171 411.62ZM532.561 399.91L531.563 399.861C531.659 397.9 531.77 395.943 531.898 393.996L532.896 394.062C532.769 396.004 532.657 397.955 532.561 399.91ZM533.335 388.222L532.339 388.138C532.506 386.172 532.693 384.22 532.899 382.287L533.893 382.392C533.688 384.319 533.502 386.264 533.335 388.222ZM534.586 376.579L533.594 376.448C533.855 374.479 534.14 372.522 534.443 370.632L535.431 370.79C535.128 372.672 534.844 374.619 534.586 376.579Z" fill="white"/>
<path d="M536.451 365.043L535.469 364.852C535.663 363.859 535.865 362.874 536.075 361.903L537.052 362.114C536.844 363.079 536.644 364.056 536.451 365.043Z" fill="white"/>
<path d="M613.456 490.861C613.456 490.861 613.092 489.873 612.44 488.036L613.383 487.702C614.031 489.529 614.393 490.514 614.393 490.516L613.456 490.861Z" fill="white"/>
<path d="M610.557 482.618C610.005 481.009 609.39 479.186 608.72 477.175L609.669 476.859C610.337 478.869 610.952 480.687 611.502 482.294L610.557 482.618ZM606.93 471.716C606.37 469.985 605.785 468.158 605.182 466.244L606.135 465.943C606.739 467.855 607.322 469.679 607.881 471.407L606.93 471.716ZM603.475 460.763C602.929 458.988 602.373 457.154 601.809 455.268L602.768 454.981C603.331 456.865 603.886 458.697 604.43 460.47L603.475 460.763ZM600.185 449.758C599.662 447.955 599.134 446.112 598.605 444.236L599.568 443.965C600.095 445.839 600.623 447.678 601.146 449.479L600.185 449.758ZM597.069 438.703C596.572 436.88 596.074 435.03 595.58 433.157L596.547 432.901C597.041 434.772 597.537 436.62 598.034 438.439L597.069 438.703ZM594.139 427.597C593.67 425.758 593.206 423.899 592.749 422.025L593.72 421.789C594.177 423.659 594.641 425.515 595.108 427.352L594.139 427.597ZM591.411 416.439C590.977 414.584 590.551 412.715 590.133 410.839L591.11 410.622C591.526 412.494 591.953 414.358 592.386 416.21L591.411 416.439ZM588.916 405.229C588.521 403.359 588.137 401.483 587.765 399.603L588.745 399.408C589.117 401.284 589.5 403.156 589.894 405.022L588.916 405.229ZM586.683 393.96C586.335 392.072 586 390.185 585.68 388.3L586.666 388.132C586.984 390.013 587.319 391.897 587.667 393.778L586.683 393.96Z" fill="white"/>
<path d="M584.768 382.665C584.616 381.675 584.468 380.685 584.324 379.697L585.314 379.552C585.457 380.537 585.604 381.524 585.756 382.512L584.768 382.665Z" fill="white"/>
<path d="M553.897 277.77C534.096 277.77 517.381 274.862 501.765 268.87L502.122 267.936C524.626 276.57 549.46 278.754 582.646 275.016L582.757 276.01C572.392 277.178 562.829 277.77 553.897 277.77Z" fill="#47393D"/>
<path d="M553.512 267.776C533.711 267.776 516.997 264.868 501.38 258.877L501.737 257.943C524.242 266.576 549.074 268.76 582.262 265.022L582.373 266.016C572.007 267.185 562.443 267.776 553.512 267.776Z" fill="#47393D"/>
<path d="M553.161 257.797C552.695 257.797 552.232 257.796 551.77 257.792C540.696 257.715 530.675 256.723 521.136 254.757C514.573 253.406 508.166 251.57 502.096 249.299L502.446 248.363C508.469 250.615 514.825 252.437 521.338 253.777C530.813 255.729 540.77 256.715 551.778 256.791C560.901 256.866 570.753 256.28 581.882 255.03L581.993 256.024C571.387 257.216 561.938 257.797 553.161 257.797Z" fill="#47393D"/>
<path d="M552.837 247.801C552.311 247.801 551.787 247.798 551.266 247.795C540.687 247.72 531.08 246.803 521.895 244.99C515.597 243.755 509.4 242.059 503.476 239.951L503.812 239.009C509.689 241.101 515.838 242.784 522.088 244.009C531.21 245.81 540.757 246.721 551.273 246.796C560.506 246.868 570.391 246.295 581.497 245.04L581.608 246.034C571.09 247.221 561.657 247.801 552.837 247.801Z" fill="#47393D"/>
<path d="M552.299 237.813C551.783 237.813 551.271 237.811 550.76 237.807C540.662 237.724 531.468 236.878 522.653 235.222C516.544 234.074 510.554 232.509 504.852 230.569L505.174 229.623C510.831 231.547 516.774 233.1 522.838 234.24C531.593 235.886 540.729 236.725 550.767 236.808C560.04 236.873 569.962 236.303 581.111 235.047L581.222 236.041C570.65 237.231 561.169 237.813 552.299 237.813Z" fill="#47393D"/>
<path d="M552.163 227.815C551.574 227.815 550.99 227.812 550.408 227.807H550.262C540.754 227.734 532.039 226.966 523.614 225.459L523.425 225.429C517.674 224.415 511.959 223 506.439 221.222L506.346 221.195L506.529 220.206L506.746 220.27C512.223 222.034 517.894 223.438 523.6 224.444L523.791 224.474C532.16 225.971 540.82 226.734 550.267 226.806H550.413C559.475 226.893 569.402 226.316 580.727 225.049L580.838 226.043C570.199 227.233 560.796 227.815 552.163 227.815Z" fill="#47393D"/>
<path d="M551.926 217.814C551.384 217.814 550.846 217.811 550.309 217.807H549.753C540.889 217.735 532.718 217.058 524.771 215.74L524.935 214.754C532.831 216.064 540.95 216.736 549.757 216.807H550.313C559.461 216.884 569.27 216.311 580.336 215.06L580.449 216.054C569.99 217.236 560.639 217.814 551.926 217.814Z" fill="#47393D"/>
<path d="M548.543 207.778C540.51 207.778 533.096 207.278 525.902 206.252L526.043 205.262C533.405 206.312 541.005 206.807 549.27 206.777C549.567 206.776 549.881 206.777 550.197 206.767C559.281 206.701 569.013 205.998 579.96 204.621L580.085 205.613C569.099 206.996 559.329 207.7 550.217 207.767C549.661 207.785 549.102 207.779 548.543 207.778Z" fill="#47393D"/>
<path d="M544.91 197.856C538.604 197.856 532.737 197.538 527.027 196.894L527.138 195.9C533.992 196.673 541.073 196.972 548.792 196.817C549.275 196.806 549.683 196.796 550.089 196.777C559.11 196.53 568.744 195.648 579.551 194.082L579.694 195.071C568.849 196.643 559.177 197.528 550.126 197.777C549.722 197.795 549.308 197.805 548.901 197.815C547.551 197.842 546.221 197.856 544.91 197.856Z" fill="#47393D"/>
<path d="M543.783 187.78C538.379 187.78 533.247 187.54 528.205 187.054L528.301 186.059C534.681 186.673 541.208 186.893 548.261 186.726C548.841 186.716 549.418 186.696 549.995 186.677L550.03 187.676C549.447 187.696 548.864 187.716 548.281 187.726C546.76 187.762 545.261 187.78 543.783 187.78Z" fill="#47393D"/>
<path d="M596.882 297.859C579.432 298.499 551.082 292.988 551.082 292.988L549.904 176.773L580.712 194.218L596.882 297.859Z" fill="#F9614A"/>
<path d="M529.35 177.221L516.5 285.861C507.34 283.361 500.24 280.871 495.6 279.081L509.22 206.778L529.35 177.221Z" fill="#F9614A"/>
<path d="M488.695 192.437L487.971 192.632L496.461 224.058L497.185 223.862L488.695 192.437Z" fill="#47393D"/>
<path d="M577.479 280.235C575.797 284.751 573.369 289.126 569.995 293.191C569.21 294.137 567.026 296.795 565.88 297.241C564.818 297.655 558.793 299.152 559.227 300.401C559.681 301.71 563.613 299.816 563.795 300.909C563.907 301.583 556.262 305.423 557.367 306.673C558.092 307.493 562.405 304.538 562.62 305.103C562.82 305.627 556.746 308.161 557.758 309.43C558.819 310.76 564.142 305.77 564.596 306.412C564.821 306.729 557.972 310.9 558.826 311.915C559.969 313.272 564.877 308.349 565.451 308.923C565.733 309.205 563.688 310.634 562.58 311.639C561.965 312.196 562.316 312.782 562.862 312.644C568.522 311.22 574.267 302.803 575.115 302.289C580.995 298.723 585.931 294.896 590.056 290.903L577.479 280.235Z" fill="#FFBB8D"/>
<path d="M569.521 292.242C569.521 292.242 581.202 276.781 576.606 248.391L607.904 223.731C607.904 223.731 620.734 279.795 580.904 300.731L569.521 292.242Z" fill="#F9614A"/>
<path d="M580.679 301.032L568.952 292.286L569.253 291.979C569.408 291.821 584.588 275.678 572.562 229.165L573.289 228.977C584.515 272.396 572.136 289.684 570.069 292.183L581.129 300.43L580.679 301.032Z" fill="#47393D"/>
<path d="M247.17 311.785C247.17 311.785 251.855 257.856 308.499 251.192H334.319C334.319 251.192 395.445 258.139 395.445 311.785H247.17Z" fill="white"/>
<path d="M308.499 251.192L309.542 242.965C317.799 247.32 325.59 247.405 332.861 242.965L334.319 251.192C334.319 251.192 331.329 259.369 320.946 259.539C311.75 259.69 308.499 251.192 308.499 251.192Z" fill="white"/>
<path d="M507.88 212.498L500.199 253.004L500.935 253.144L508.616 212.637L507.88 212.498Z" fill="#47393D"/>
<path d="M575.686 245.835C574.359 239.946 570.096 234.377 570.053 234.322L570.647 233.864C570.826 234.096 575.053 239.617 576.418 245.671L575.686 245.835Z" fill="#47393D"/>
<path d="M324.289 307.646C308.714 307.646 294.905 305.536 281.734 301.277L282.042 300.326C304.978 307.743 329.893 308.592 362.83 303.081L362.995 304.067C348.769 306.447 336.026 307.646 324.289 307.646Z" fill="#47393D"/>
<path d="M323.396 297.7C315.627 297.7 308.319 297.172 301.24 296.104C294.615 295.108 288.12 293.618 281.935 291.674L282.235 290.721C288.371 292.648 294.816 294.126 301.389 295.116C310.956 296.558 320.951 297.009 331.947 296.496C341.061 296.071 350.863 294.968 361.913 293.124L362.078 294.11C350.988 295.96 341.147 297.068 331.993 297.494C329.062 297.632 326.199 297.7 323.396 297.7Z" fill="#47393D"/>
<path d="M322.448 287.74C315.119 287.74 308.199 287.266 301.475 286.31C295.115 285.413 288.836 284.051 282.812 282.264L283.096 281.305C289.073 283.078 295.303 284.429 301.615 285.32C310.821 286.63 320.405 287.026 330.907 286.539C340.128 286.117 349.969 285.014 360.994 283.167L361.159 284.153C350.095 286.008 340.214 287.114 330.953 287.537C328.053 287.673 325.221 287.74 322.448 287.74Z" fill="#47393D"/>
<path d="M321.574 277.785C314.649 277.785 308.093 277.365 301.71 276.516C295.543 275.696 289.478 274.453 283.685 272.823L283.956 271.86C289.704 273.478 295.722 274.71 301.842 275.524C310.672 276.698 319.84 277.047 329.869 276.592C339.127 276.166 349.007 275.06 360.074 273.208L360.239 274.194C349.132 276.052 339.213 277.163 329.914 277.589C327.069 277.721 324.293 277.785 321.574 277.785Z" fill="#47393D"/>
<path d="M320.646 267.826C314.241 267.826 308.133 267.458 302.146 266.716L301.96 266.696C296.158 265.992 290.376 264.885 284.769 263.405L284.671 263.382L284.801 262.385L285.024 262.439C290.587 263.907 296.324 265.005 302.077 265.704L302.265 265.724C310.711 266.771 319.399 267.068 328.833 266.635L328.977 266.627C338.053 266.225 347.922 265.119 359.156 263.248L359.32 264.234C348.046 266.112 338.137 267.221 329.028 267.626L328.876 267.634C326.072 267.762 323.333 267.826 320.646 267.826Z" fill="#47393D"/>
<path d="M321.749 257.94C307.364 257.94 294.605 255.812 284.778 253.408L284.673 253.383L284.805 252.386L285.016 252.436C302.549 256.725 329.488 260.131 358.258 251.995L358.531 252.957C345.684 256.59 333.2 257.94 321.749 257.94Z" fill="#47393D"/>
<path d="M308.499 251.192L303.797 311.624L247.17 311.784C247.17 311.784 250.605 254.419 308.499 251.192Z" fill="#F9614A"/>
<path d="M334.319 251.192L339.021 311.624L395.648 311.784C395.648 311.784 397.712 256.816 334.319 251.192Z" fill="#F9614A"/>
<path d="M276.913 311.722L275.964 311.636C276.001 311.23 276.891 301.608 279.489 295.457L280.367 295.828C277.827 301.841 276.922 311.624 276.913 311.722Z" fill="#47393D"/>
<path d="M368.339 311.729C368.331 311.631 367.479 301.842 364.974 295.816L365.854 295.45C368.417 301.615 369.255 311.241 369.289 311.648L368.339 311.729Z" fill="#47393D"/>
<path d="M269.14 192.644H267.131V170.333C267.131 163.493 272.99 157.928 280.192 157.928H303.691V159.837H280.192C274.098 159.837 269.141 164.546 269.141 170.334L269.14 192.644Z" fill="white"/>
<path d="M303.69 260.845H280.191C272.989 260.845 267.13 255.28 267.13 248.44V226.12H269.139V248.44C269.139 254.228 274.097 258.937 280.19 258.937H303.689V260.845H303.69Z" fill="white"/>
<path d="M375.484 192.644H373.475V170.333C373.475 164.545 368.517 159.836 362.424 159.836H338.935V157.927H362.424C369.626 157.927 375.485 163.492 375.485 170.332L375.484 192.644Z" fill="white"/>
<path d="M362.423 260.845H338.934V258.936H362.423C368.517 258.936 373.474 254.227 373.474 248.439V226.119H375.483V248.439C375.484 255.28 369.625 260.845 362.423 260.845Z" fill="white"/>
<path d="M418.746 312.211H236.351V311.211H418.747C422.289 311.211 425.17 308.33 425.17 304.788V206.774H426.17V304.788C426.169 308.881 422.839 312.211 418.746 312.211Z" fill="#47393D"/>
<path d="M400.746 318.211H296.095V319.211H400.746V318.211Z" fill="#47393D"/>
<path d="M539.879 125.036C539.879 125.036 538.009 117.502 544.053 118.636C544.053 118.636 548.399 115.342 551.686 118.982C555.381 123.075 550.152 128.507 546.531 129.327L539.879 125.036Z" fill="#47393D"/>
<path d="M539.554 125.222C539.528 125.175 536.932 120.515 540.079 118.094C542.056 116.573 543.896 117.745 544.595 118.576L544.022 119.059C543.957 118.983 542.432 117.23 540.537 118.688C537.907 120.711 540.183 124.81 540.207 124.852L539.554 125.222Z" fill="#47393D"/>
<path d="M547.779 129.898L547.56 129.18C547.594 129.17 550.954 128.119 552.254 125.58C552.875 124.367 552.932 122.99 552.42 121.489L553.131 121.248C553.71 122.95 553.639 124.524 552.919 125.926C551.472 128.75 547.929 129.853 547.779 129.898Z" fill="#47393D"/>
<path d="M314.354 182.516C314.354 182.516 307.22 175.995 314.267 173.003C314.267 173.003 316.501 166.591 322.418 168.098C329.071 169.792 327.397 179.03 324.208 182.377L314.354 182.516Z" fill="#47393D"/>
<path d="M314.185 182.851C314.126 182.821 308.293 179.816 309.86 175.211C311.083 171.622 314.725 172.644 314.76 172.654L314.55 173.374C314.428 173.341 311.558 172.55 310.57 175.452C309.213 179.439 314.469 182.154 314.523 182.181L314.185 182.851Z" fill="#47393D"/>
<path d="M325.825 182.05L325.246 181.573C325.274 181.539 328.057 178.105 327.65 174.536C327.454 172.824 326.551 171.337 324.966 170.118L325.423 169.523C327.177 170.872 328.177 172.531 328.396 174.455C328.837 178.343 325.948 181.9 325.825 182.05Z" fill="#47393D"/>
<path d="M664.25 515.199H20.8459V516.518H664.25V515.199Z" fill="#47393D"/>
</svg>
